<svg width="242" height="340" viewBox="0 0 242 340" fill="none" xmlns="http://www.w3.org/2000/svg">
<path d="M175.955 85.38C174.337 79.545 173.989 73.4311 174.933 67.4501V67.4501C176.878 55.1315 184.151 44.2951 194.814 37.8273L208.5 29.5258L207.812 32.2761C203.673 48.8335 203.84 66.1747 208.298 82.6492L213 100.026L227.994 140.097C236.986 164.126 236.398 190.691 226.352 214.298L199.464 277.487C188.349 303.606 166.657 323.771 139.798 332.954L123.5 338.526L193.275 194.504C198.576 183.562 199.708 171.063 196.46 159.346L175.955 85.38Z" fill="#359AD8"/>
<path d="M27.5 139.026C23.0451 136.722 24.2126 130.05 29.1853 129.396L51 126.526L62.072 142.233C68.9481 151.987 77.7863 160.198 88.02 166.338V166.338C102.359 174.941 113.868 187.553 121.126 202.618L136.5 234.526L164 283.526L139.25 316.026L124.5 339.026L127.908 318.292C129.625 307.847 129.673 297.197 128.05 286.737L127.364 282.317C126.456 276.468 125.031 270.711 123.106 265.114L110 227.026L101.953 212.742C94.099 198.802 83.0147 186.949 69.6307 178.18L60.0483 171.902C51.0746 166.023 43.1054 158.738 36.4464 150.326L27.5 139.026V139.026Z" fill="#359AD8"/>
<path d="M0 3.1487V3.1487C17.7716 4.991 31.6431 19.3481 32.873 37.1726L35.1053 69.5235C35.4926 75.1361 36.3528 80.7061 37.6768 86.174L52.9667 149.318V149.318C38.2719 151.335 24.4527 141.847 21.0553 127.409L11.9998 88.9247C10.3857 82.0653 9.78413 75.0066 10.2141 67.9729L11.3705 49.055C11.757 42.7324 10.9386 36.394 8.95885 30.3769L0 3.1487Z" fill="#359AD8"/>
<path d="M30 3.1487V3.1487C48.9375 4.90251 63.81 20.1281 65.1192 39.1015L67.1688 68.8037C67.5823 74.7972 68.5352 80.7414 70.0158 86.5639L85.9211 149.114V149.114C70.1415 151.21 55.3111 141.1 51.4946 125.647L42.6051 89.6505C40.7903 82.3017 40.1355 74.7142 40.6645 67.1631L41.8905 49.6614C42.3629 42.9171 41.4627 36.147 39.2442 29.7605L30 3.1487Z" fill="#359AD8"/>
<path d="M65 21.1487V21.1487C83.1616 22.9613 97.3678 37.6087 98.6242 55.8172L100.877 88.4723C101.219 93.4232 101.929 98.3417 103.001 103.187L112.511 146.18V146.18C104.292 156.278 88.0624 152.578 85.0334 139.915L75.8963 101.716C75.0808 98.3067 74.7802 94.7946 75.0045 91.2964L76.5457 67.2581C76.9601 60.7941 76.1147 54.3112 74.0563 48.1697L65 21.1487Z" fill="#359AD8"/>
<path d="M100 39.1487V39.1487C115.753 41.1112 127.689 54.3227 128.046 70.1937L129 112.526V112.526C127.766 129.796 136.031 146.369 150.568 155.776L161 162.526V162.526C144.222 174.944 120.219 165.909 115.794 145.51L110.351 120.42C109.515 116.565 109.185 112.618 109.37 108.678L110.526 84.0923C110.792 78.4422 110.097 72.7879 108.471 67.3703L100 39.1487Z" fill="#359AD8"/>
<path d="M162 162.595L155.756 165.263C145.037 169.843 133.055 170.534 121.881 167.216L106.317 162.595L82.4869 153.035C74.1996 149.711 66.395 145.291 59.2811 139.894L55.5 137.026L36.5 130.526V130.526C32.06 128.2 34.532 121.448 39.4243 122.539L81.0505 131.819L103.381 137.789C108.553 139.172 113.469 141.376 117.942 144.318L126.295 149.812C130.409 152.518 134.9 154.601 139.623 155.994L162 162.595Z" fill="#359AD8"/>
</svg>
